# Blender v3.0.1 OBJ File: ''
# www.blender.org
mtllib creeper.geo.mtl
o body
v 0.250000 0.375000 -0.125000
v -0.250000 0.375000 -0.125000
v -0.250000 1.125000 -0.125000
v 0.250000 1.125000 -0.125000
v 0.250000 0.375000 0.125000
v 0.250000 1.125000 0.125000
v -0.250000 0.375000 0.125000
v -0.250000 1.125000 0.125000
vt 0.437500 0.000000
vt 0.312500 0.375000
vt 0.312500 0.000000
vt 0.250000 0.375000
vt 0.250000 0.000000
vt 0.625000 0.000000
vt 0.500000 0.375000
vt 0.500000 0.000000
vt 0.437500 0.375000
vt 0.312500 0.500000
vt 0.437500 0.500000
vt 0.437500 0.375000
vt 0.562500 0.500000
vt 0.562500 0.375000
vt 0.625000 0.375000
vt 0.437500 0.500000
vn 0.0000 0.0000 -1.0000
vn 1.0000 0.0000 0.0000
vn 0.0000 -0.0000 1.0000
vn -1.0000 -0.0000 0.0000
vn 0.0000 1.0000 0.0000
vn 0.0000 -1.0000 0.0000
usemtl m_1
s 1
f 2/1/1 4/2/1 1/3/1
f 1/3/2 6/4/2 5/5/2
f 5/6/3 8/7/3 7/8/3
f 7/8/4 3/9/4 2/1/4
f 6/10/5 3/9/5 8/11/5
f 1/12/6 7/13/6 2/14/6
f 2/1/1 3/9/1 4/2/1
f 1/3/2 4/2/2 6/4/2
f 5/6/3 6/15/3 8/7/3
f 7/8/4 8/7/4 3/9/4
f 6/10/5 4/2/5 3/9/5
f 1/12/6 5/16/6 7/13/6
o head
v 0.250000 1.125000 -0.250000
v -0.250000 1.125000 -0.250000
v -0.250000 1.625000 -0.250000
v 0.250000 1.625000 -0.250000
v 0.250000 1.125000 0.250000
v 0.250000 1.625000 0.250000
v -0.250000 1.125000 0.250000
v -0.250000 1.625000 0.250000
vt 0.250000 0.500000
vt 0.125000 0.750000
vt 0.125000 0.500000
vt 0.000000 0.750000
vt 0.000000 0.500000
vt 0.500000 0.500000
vt 0.375000 0.750000
vt 0.375000 0.500000
vt 0.250000 0.750000
vt 0.125000 1.000000
vt 0.250000 1.000000
vt 0.250000 0.750000
vt 0.375000 1.000000
vt 0.375000 0.750000
vt 0.500000 0.750000
vt 0.250000 1.000000
vn 0.0000 0.0000 -1.0000
vn 1.0000 -0.0000 0.0000
vn 0.0000 0.0000 1.0000
vn -1.0000 -0.0000 0.0000
vn 0.0000 1.0000 0.0000
vn 0.0000 -1.0000 0.0000
usemtl m_1
s 1
f 10/17/7 12/18/7 9/19/7
f 9/19/8 14/20/8 13/21/8
f 13/22/9 16/23/9 15/24/9
f 15/24/10 11/25/10 10/17/10
f 14/26/11 11/25/11 16/27/11
f 9/28/12 15/29/12 10/30/12
f 10/17/7 11/25/7 12/18/7
f 9/19/8 12/18/8 14/20/8
f 13/22/9 14/31/9 16/23/9
f 15/24/10 16/23/10 11/25/10
f 14/26/11 12/18/11 11/25/11
f 9/28/12 13/32/12 15/29/12
o leg0
v 0.250000 -0.000000 0.125000
v 0.000000 -0.000000 0.125000
v 0.000000 0.375000 0.125000
v 0.250000 0.375000 0.125000
v 0.250000 -0.000000 0.375000
v 0.250000 0.375000 0.375000
v 0.000000 -0.000000 0.375000
v 0.000000 0.375000 0.375000
vt 0.125000 0.187500
vt 0.062500 0.375000
vt 0.062500 0.187500
vt 0.000000 0.375000
vt 0.000000 0.187500
vt 0.250000 0.187500
vt 0.187500 0.375000
vt 0.187500 0.187500
vt 0.125000 0.375000
vt 0.062500 0.500000
vt 0.125000 0.500000
vt 0.125000 0.375000
vt 0.187500 0.500000
vt 0.187500 0.375000
vt 0.250000 0.375000
vt 0.125000 0.500000
vn 0.0000 0.0000 -1.0000
vn 1.0000 0.0000 0.0000
vn 0.0000 -0.0000 1.0000
vn -1.0000 0.0000 0.0000
vn 0.0000 1.0000 0.0000
vn 0.0000 -1.0000 -0.0000
usemtl m_1
s 1
f 18/33/13 20/34/13 17/35/13
f 17/35/14 22/36/14 21/37/14
f 21/38/15 24/39/15 23/40/15
f 23/40/16 19/41/16 18/33/16
f 22/42/17 19/41/17 24/43/17
f 17/44/18 23/45/18 18/46/18
f 18/33/13 19/41/13 20/34/13
f 17/35/14 20/34/14 22/36/14
f 21/38/15 22/47/15 24/39/15
f 23/40/16 24/39/16 19/41/16
f 22/42/17 20/34/17 19/41/17
f 17/44/18 21/48/18 23/45/18
o leg1
v 0.000000 -0.000000 0.125000
v -0.250000 -0.000000 0.125000
v -0.250000 0.375000 0.125000
v 0.000000 0.375000 0.125000
v 0.000000 -0.000000 0.375000
v 0.000000 0.375000 0.375000
v -0.250000 -0.000000 0.375000
v -0.250000 0.375000 0.375000
vt 0.125000 0.187500
vt 0.062500 0.375000
vt 0.062500 0.187500
vt 0.000000 0.375000
vt 0.000000 0.187500
vt 0.250000 0.187500
vt 0.187500 0.375000
vt 0.187500 0.187500
vt 0.125000 0.375000
vt 0.062500 0.500000
vt 0.125000 0.500000
vt 0.125000 0.375000
vt 0.187500 0.500000
vt 0.187500 0.375000
vt 0.250000 0.375000
vt 0.125000 0.500000
vn 0.0000 0.0000 -1.0000
vn 1.0000 0.0000 0.0000
vn 0.0000 -0.0000 1.0000
vn -1.0000 0.0000 0.0000
vn 0.0000 1.0000 0.0000
vn 0.0000 -1.0000 -0.0000
usemtl m_1
s 1
f 26/49/19 28/50/19 25/51/19
f 25/51/20 30/52/20 29/53/20
f 29/54/21 32/55/21 31/56/21
f 31/56/22 27/57/22 26/49/22
f 30/58/23 27/57/23 32/59/23
f 25/60/24 31/61/24 26/62/24
f 26/49/19 27/57/19 28/50/19
f 25/51/20 28/50/20 30/52/20
f 29/54/21 30/63/21 32/55/21
f 31/56/22 32/55/22 27/57/22
f 30/58/23 28/50/23 27/57/23
f 25/60/24 29/64/24 31/61/24
o leg2
v 0.250000 0.000000 -0.375000
v 0.000000 0.000000 -0.375000
v 0.000000 0.375000 -0.375000
v 0.250000 0.375000 -0.375000
v 0.250000 0.000000 -0.125000
v 0.250000 0.375000 -0.125000
v 0.000000 0.000000 -0.125000
v 0.000000 0.375000 -0.125000
vt 0.125000 0.187500
vt 0.062500 0.375000
vt 0.062500 0.187500
vt 0.000000 0.375000
vt 0.000000 0.187500
vt 0.250000 0.187500
vt 0.187500 0.375000
vt 0.187500 0.187500
vt 0.125000 0.375000
vt 0.062500 0.500000
vt 0.125000 0.500000
vt 0.125000 0.375000
vt 0.187500 0.500000
vt 0.187500 0.375000
vt 0.250000 0.375000
vt 0.125000 0.500000
vn 0.0000 0.0000 -1.0000
vn 1.0000 0.0000 0.0000
vn 0.0000 -0.0000 1.0000
vn -1.0000 0.0000 0.0000
vn 0.0000 1.0000 0.0000
vn 0.0000 -1.0000 -0.0000
usemtl m_1
s 1
f 34/65/25 36/66/25 33/67/25
f 33/67/26 38/68/26 37/69/26
f 37/70/27 40/71/27 39/72/27
f 39/72/28 35/73/28 34/65/28
f 38/74/29 35/73/29 40/75/29
f 33/76/30 39/77/30 34/78/30
f 34/65/25 35/73/25 36/66/25
f 33/67/26 36/66/26 38/68/26
f 37/70/27 38/79/27 40/71/27
f 39/72/28 40/71/28 35/73/28
f 38/74/29 36/66/29 35/73/29
f 33/76/30 37/80/30 39/77/30
o leg3
v 0.000000 0.000000 -0.375000
v -0.250000 0.000000 -0.375000
v -0.250000 0.375000 -0.375000
v 0.000000 0.375000 -0.375000
v 0.000000 0.000000 -0.125000
v 0.000000 0.375000 -0.125000
v -0.250000 0.000000 -0.125000
v -0.250000 0.375000 -0.125000
vt 0.125000 0.187500
vt 0.062500 0.375000
vt 0.062500 0.187500
vt 0.000000 0.375000
vt 0.000000 0.187500
vt 0.250000 0.187500
vt 0.187500 0.375000
vt 0.187500 0.187500
vt 0.125000 0.375000
vt 0.062500 0.500000
vt 0.125000 0.500000
vt 0.125000 0.375000
vt 0.187500 0.500000
vt 0.187500 0.375000
vt 0.250000 0.375000
vt 0.125000 0.500000
vn 0.0000 0.0000 -1.0000
vn 1.0000 0.0000 0.0000
vn 0.0000 -0.0000 1.0000
vn -1.0000 0.0000 0.0000
vn 0.0000 1.0000 0.0000
vn 0.0000 -1.0000 -0.0000
usemtl m_1
s 1
f 42/81/31 44/82/31 41/83/31
f 41/83/32 46/84/32 45/85/32
f 45/86/33 48/87/33 47/88/33
f 47/88/34 43/89/34 42/81/34
f 46/90/35 43/89/35 48/91/35
f 41/92/36 47/93/36 42/94/36
f 42/81/31 43/89/31 44/82/31
f 41/83/32 44/82/32 46/84/32
f 45/86/33 46/95/33 48/87/33
f 47/88/34 48/87/34 43/89/34
f 46/90/35 44/82/35 43/89/35
f 41/92/36 45/96/36 47/93/36
